HIERARCHY
ROOT Hips
{
    OFFSET   0.000000   0.000000   0.000000
    CHANNELS 6 Xposition Yposition Zposition Zrotation Xrotation Yrotation
    JOINT Chest
    {
        OFFSET   0.000000   8.007230   0.000000
        CHANNELS 3 Zrotation Xrotation Yrotation
        JOINT Chest2
        {
            OFFSET   0.000000  22.077100   0.000000
            CHANNELS 3 Zrotation Xrotation Yrotation
            JOINT Neck
            {
                OFFSET   0.000000  23.254800  -0.000021
                CHANNELS 3 Zrotation Xrotation Yrotation
                JOINT Head
                {
                    OFFSET   0.000000  14.370000   1.956610
                    CHANNELS 3 Zrotation Xrotation Yrotation
                    End Site
                    {
                        OFFSET   0.000000  19.566000   0.000000
                    }
                }
            }
            JOINT LeftCollar
            {
                OFFSET   3.911900  19.017000  -0.467063
                CHANNELS 3 Zrotation Xrotation Yrotation
                JOINT LeftShoulder
                {
                    OFFSET  10.383700   0.000000   0.000000
                    CHANNELS 3 Zrotation Xrotation Yrotation
                    JOINT LeftElbow
                    {
                        OFFSET  26.662100   0.001529   0.000325
                        CHANNELS 3 Zrotation Xrotation Yrotation
                        JOINT LeftWrist
                        {
                            OFFSET  28.869000  -0.000011  -0.000096
                            CHANNELS 3 Zrotation Xrotation Yrotation
                            JOINT LeftFinger0
                            {
                                OFFSET   2.044650  -2.323460   3.252850
                                CHANNELS 3 Zrotation Xrotation Yrotation
                                JOINT LeftFinger01
                                {
                                    OFFSET   3.088130   0.000000   0.000000
                                    CHANNELS 3 Zrotation Xrotation Yrotation
                                    JOINT LeftFinger02
                                    {
                                        OFFSET   2.639460   0.000000   0.000000
                                        CHANNELS 3 Zrotation Xrotation Yrotation
                                        End Site
                                        {
                                            OFFSET   2.582190   0.000000   0.000000
                                        }
                                    }
                                }
                            }
                            JOINT LeftFinger1
                            {
                                OFFSET   8.364480   0.000000   3.252850
                                CHANNELS 3 Zrotation Xrotation Yrotation
                                JOINT LeftFinger11
                                {
                                    OFFSET   4.646930   0.000000   0.000000
                                    CHANNELS 3 Zrotation Xrotation Yrotation
                                    JOINT LeftFinger12
                                    {
                                        OFFSET   2.323460   0.000000   0.000000
                                        CHANNELS 3 Zrotation Xrotation Yrotation
                                        End Site
                                        {
                                            OFFSET   2.273050   0.000000   0.000000
                                        }
                                    }
                                }
                            }
                            JOINT LeftFinger2
                            {
                                OFFSET   8.364480   0.000016   1.078090
                                CHANNELS 3 Zrotation Xrotation Yrotation
                                JOINT LeftFinger21
                                {
                                    OFFSET   5.111620   0.000000   0.000000
                                    CHANNELS 3 Zrotation Xrotation Yrotation
                                    JOINT LeftFinger22
                                    {
                                        OFFSET   2.788160   0.000017   0.000000
                                        CHANNELS 3 Zrotation Xrotation Yrotation
                                        End Site
                                        {
                                            OFFSET   2.727660   0.000000   0.000000
                                        }
                                    }
                                }
                            }
                            JOINT LeftFinger3
                            {
                                OFFSET   7.899780   0.000015  -1.078090
                                CHANNELS 3 Zrotation Xrotation Yrotation
                                JOINT LeftFinger31
                                {
                                    OFFSET   4.646920   0.000000   0.000000
                                    CHANNELS 3 Zrotation Xrotation Yrotation
                                    JOINT LeftFinger32
                                    {
                                        OFFSET   2.323470   0.000000   0.000000
                                        CHANNELS 3 Zrotation Xrotation Yrotation
                                        End Site
                                        {
                                            OFFSET   2.273050   0.000000   0.000000
                                        }
                                    }
                                }
                            }
                            JOINT LeftFinger4
                            {
                                OFFSET   7.435090   0.000000  -3.252850
                                CHANNELS 3 Zrotation Xrotation Yrotation
                                JOINT LeftFinger41
                                {
                                    OFFSET   3.717550   0.000000   0.000000
                                    CHANNELS 3 Zrotation Xrotation Yrotation
                                    JOINT LeftFinger42
                                    {
                                        OFFSET   1.858760   0.000000   0.000000
                                        CHANNELS 3 Zrotation Xrotation Yrotation
                                        End Site
                                        {
                                            OFFSET   1.818440   0.000000   0.000000
                                        }
                                    }
                                }
                            }
                        }
                    }
                }
            }
            JOINT RightCollar
            {
                OFFSET  -3.911900  19.017000  -0.467062
                CHANNELS 3 Zrotation Xrotation Yrotation
                JOINT RightShoulder
                {
                    OFFSET -10.383700   0.000015   0.000000
                    CHANNELS 3 Zrotation Xrotation Yrotation
                    JOINT RightElbow
                    {
                        OFFSET -26.662100   0.001341   0.000385
                        CHANNELS 3 Zrotation Xrotation Yrotation
                        JOINT RightWrist
                        {
                            OFFSET -28.869000   0.000025  -0.000080
                            CHANNELS 3 Zrotation Xrotation Yrotation
                            JOINT RightFinger0
                            {
                                OFFSET  -2.044650  -2.323490   3.252850
                                CHANNELS 3 Zrotation Xrotation Yrotation
                                JOINT RightFinger01
                                {
                                    OFFSET  -3.088130   0.000000   0.000000
                                    CHANNELS 3 Zrotation Xrotation Yrotation
                                    JOINT RightFinger02
                                    {
                                        OFFSET  -2.639460   0.000000   0.000000
                                        CHANNELS 3 Zrotation Xrotation Yrotation
                                        End Site
                                        {
                                            OFFSET  -2.582190   0.000000   0.000000
                                        }
                                    }
                                }
                            }
                            JOINT RightFinger1
                            {
                                OFFSET  -8.364480   0.000000   3.252850
                                CHANNELS 3 Zrotation Xrotation Yrotation
                                JOINT RightFinger11
                                {
                                    OFFSET  -4.646930   0.000000   0.000000
                                    CHANNELS 3 Zrotation Xrotation Yrotation
                                    JOINT RightFinger12
                                    {
                                        OFFSET  -2.323470   0.000000   0.000000
                                        CHANNELS 3 Zrotation Xrotation Yrotation
                                        End Site
                                        {
                                            OFFSET  -2.273050   0.000000   0.000000
                                        }
                                    }
                                }
                            }
                            JOINT RightFinger2
                            {
                                OFFSET  -8.364480   0.000000   1.078090
                                CHANNELS 3 Zrotation Xrotation Yrotation
                                JOINT RightFinger21
                                {
                                    OFFSET  -5.111610   0.000000   0.000000
                                    CHANNELS 3 Zrotation Xrotation Yrotation
                                    JOINT RightFinger22
                                    {
                                        OFFSET  -2.788160   0.000000   0.000000
                                        CHANNELS 3 Zrotation Xrotation Yrotation
                                        End Site
                                        {
                                            OFFSET  -2.727660   0.000000   0.000000
                                        }
                                    }
                                }
                            }
                            JOINT RightFinger3
                            {
                                OFFSET  -7.899780   0.000000  -1.078090
                                CHANNELS 3 Zrotation Xrotation Yrotation
                                JOINT RightFinger31
                                {
                                    OFFSET  -4.646920   0.000000   0.000000
                                    CHANNELS 3 Zrotation Xrotation Yrotation
                                    JOINT RightFinger32
                                    {
                                        OFFSET  -2.323470   0.000000   0.000000
                                        CHANNELS 3 Zrotation Xrotation Yrotation
                                        End Site
                                        {
                                            OFFSET  -2.273050   0.000000   0.000000
                                        }
                                    }
                                }
                            }
                            JOINT RightFinger4
                            {
                                OFFSET  -7.435090   0.000000  -3.252850
                                CHANNELS 3 Zrotation Xrotation Yrotation
                                JOINT RightFinger41
                                {
                                    OFFSET  -3.717550   0.000000   0.000000
                                    CHANNELS 3 Zrotation Xrotation Yrotation
                                    JOINT RightFinger42
                                    {
                                        OFFSET  -1.858770   0.000000   0.000000
                                        CHANNELS 3 Zrotation Xrotation Yrotation
                                        End Site
                                        {
                                            OFFSET  -1.818440   0.000000   0.000000
                                        }
                                    }
                                }
                            }
                        }
                    }
                }
            }
        }
    }
    JOINT LeftHip
    {
        OFFSET   9.783010   0.000000   0.000000
        CHANNELS 3 Zrotation Xrotation Yrotation
        JOINT LeftKnee
        {
            OFFSET   0.000070 -41.789100   0.000028
            CHANNELS 3 Zrotation Xrotation Yrotation
            JOINT LeftAnkle
            {
                OFFSET   0.000087 -41.133200  -0.000100
                CHANNELS 3 Zrotation Xrotation Yrotation
                JOINT LeftToe
                {
                    OFFSET   0.000000  -6.358960  14.674500
                    CHANNELS 3 Zrotation Xrotation Yrotation
                    End Site
                    {
                        OFFSET   0.000000   0.000000   3.913200
                    }
                }
            }
        }
    }
    JOINT RightHip
    {
        OFFSET  -9.783020   0.000000   0.000000
        CHANNELS 3 Zrotation Xrotation Yrotation
        JOINT RightKnee
        {
            OFFSET   0.000044 -41.789100  -0.000870
            CHANNELS 3 Zrotation Xrotation Yrotation
            JOINT RightAnkle
            {
                OFFSET  -0.000090 -41.133200  -0.000245
                CHANNELS 3 Zrotation Xrotation Yrotation
                JOINT RightToe
                {
                    OFFSET   0.000000  -6.358960  14.674500
                    CHANNELS 3 Zrotation Xrotation Yrotation
                    End Site
                    {
                        OFFSET   0.000000   0.000000   3.913200
                    }
                }
            }
        }
    }
}
MOTION
Frames: 6
Frame Time:   0.016667
 -1.782790  90.109400  -0.815245  -2.971950 -16.405100  -1.508590   0.997905  10.879100  -1.248100   2.306080  21.731200  -2.770900   3.086800   1.688990  -0.091091   5.083380   3.394880  10.995200  -8.593340  -7.448990   4.951830 -64.455700  23.803400 -29.525700  17.018200   2.849080 -52.686500  32.558900  28.226000  -9.096550  48.452600  28.605400 -54.883700 -13.279800  -0.002184  -0.000477  -1.639910  -0.002525  -0.001148 -12.206400   3.721360 -16.600400 -10.427400   0.002578  -0.001345  -7.299210  -0.001863  -0.001431 -20.843000   5.177210 -13.326600 -21.448700   0.001635   0.007401 -14.284900  -0.002739   0.002736 -14.757200   3.710720 -13.812300 -15.205800  -0.001138   0.000279 -10.127000  -0.004609   0.002176 -24.198700   2.004090  -4.457080 -36.413900   0.003880   0.001217 -24.251700   0.001554   0.002589  12.821500  -3.292000  16.729200  61.593400  15.817700  30.396000 -16.996800  -0.537714  45.884800 -52.022200  34.879100  23.032000 -43.809800  28.692700  64.860100   0.510345   0.002177   0.000043  -4.744820  -0.000565   0.000369   7.790000   0.254588   1.811230   6.376890  -0.000255   0.000097   4.463840  -0.001683   0.003898   6.322650  -0.620627  -5.664460   6.353920   0.000134  -0.001746   4.231710  -0.000548   0.003844   5.160080  -1.293460 -14.158300   5.322300  -0.001952  -0.001037   3.544650  -0.006846   0.000333  14.588200  -5.215020 -19.325900  23.221600  -0.002663   0.002308  15.465600  -0.001170   0.001612   3.636570  16.784400   1.751080   0.631172   3.586700  11.496800  -6.689390  -5.225290   3.102430  -0.000000   0.000000   0.000000   3.931230  15.838000 -12.061200  -0.743946   3.594520  -8.020620  -9.970480   0.416743   0.285155  -0.000000   0.000000   0.000000
 -1.769190  90.104500  -0.824072  -2.963580 -16.352300  -1.475490   0.984539  10.888300  -1.271940   2.283910  21.749500  -2.816810   3.120200   1.556210  -0.084851   5.136610   3.127130  11.222000  -8.555030  -7.367110   5.014480 -64.344100  23.683800 -29.300900  16.878700   2.730460 -52.876900  30.594600  28.968000  -8.371050  48.663400  28.560600 -54.547400 -12.890700  -0.002067  -0.000423  -1.445370  -0.002520  -0.001065 -13.742100   4.106610 -16.336700 -11.724800   0.002515  -0.001281  -8.207390  -0.001981  -0.001407 -20.405000   5.116180 -13.474700 -21.010300   0.001657   0.007382 -13.992900  -0.002749   0.002749 -14.918100   3.781880 -13.901400 -15.379700  -0.001282   0.000384 -10.242900  -0.004826   0.002133 -24.485800   1.978480  -4.335770 -36.841600  -0.001496   0.000996 -24.536500  -0.001014   0.002375  12.792800  -3.186460  16.721600  61.651000  15.628300  29.866300 -17.104200  -0.537038  46.612600 -49.325300  35.385600  21.130400 -43.508800  28.860400  65.484600   0.607033   0.001727   0.000087  -4.696480  -0.000535   0.000387   8.622970   0.304386   2.003800   7.059680  -0.000255   0.000070   4.941790  -0.001682   0.003941   6.630400  -0.654036  -5.594660   6.662930   0.000132  -0.001759   4.437510  -0.000530   0.003660   5.558290  -1.392090 -14.057400   5.730780  -0.001908  -0.001008   3.816690  -0.006849   0.000272  15.004100  -5.322000 -19.087700  23.850400  -0.002629   0.002310  15.884400  -0.001174   0.001669   3.639010  16.754800   1.764720   0.629439   3.538250  11.472700  -6.689530  -5.204810   3.086660   0.000000   0.000000  -0.000000   3.924760  15.785600 -12.066900  -0.738739   3.592450  -8.025630  -9.966400   0.421786   0.269293   0.000000   0.000000   0.000000
 -1.755700  90.097500  -0.832036  -2.952020 -16.284600  -1.439850   0.970861  10.882500  -1.295400   2.260310  21.737600  -2.862090   3.153940   1.445930  -0.079678   5.190490   2.905010  11.459000  -8.502580  -7.281580   5.088060 -64.274600  23.461800 -29.032800  16.862600   2.562980 -53.402000  28.990200  29.680600  -7.894050  49.244400  28.944400 -54.531100 -12.317800  -0.001946  -0.000368  -1.158900  -0.002516  -0.000989 -14.077500   4.110720 -16.117700 -11.998900   0.002440  -0.001195  -8.399220  -0.002086  -0.001358 -19.960400   5.051320 -13.625700 -20.564600   0.001683   0.007349 -13.696100  -0.002753   0.002752 -14.827300   3.790600 -14.021400 -15.294200  -0.001425   0.000473 -10.185900  -0.005029   0.002092 -24.066700   2.017250  -4.508010 -36.219600  -0.001418   0.000802 -24.122300  -0.001695   0.002191  12.740800  -3.055600  16.703600  61.686700  15.392100  29.363200 -17.316100  -0.700620  47.520900 -46.613200  36.052000  19.184000 -43.996100  29.434000  65.905600  -0.035738   0.001244   0.000081  -5.017860  -0.000501   0.000515   9.129720   0.320135   2.004460   7.475540  -0.000261   0.000028   5.232880  -0.001681   0.004012   5.984540  -0.604090  -5.617990   6.015140   0.000129  -0.001750   4.006080  -0.000513   0.003486   4.925660  -1.219860 -13.914600   5.075370  -0.001868  -0.000970   3.380190  -0.006849   0.000212  14.229600  -5.060040 -19.023600  22.573900  -0.002591   0.002305  15.034200  -0.001183   0.001729   3.637870  16.711500   1.772740   0.630311   3.490180  11.448200  -6.692180  -5.183140   3.075180   0.000000   0.000000   0.000000   3.917490  15.726800 -12.079900  -0.731924   3.583000  -8.011150  -9.961610   0.430888   0.241005   0.000000   0.000000  -0.000000
 -1.742860  90.087700  -0.838181  -2.940560 -16.205500  -1.405580   0.957521  10.865900  -1.317060   2.236640  21.704400  -2.903360   3.187140   1.356890  -0.075547   5.244090   2.725760  11.694700  -8.442010  -7.198680   5.153570 -64.192500  23.202700 -28.740000  17.014100   2.387910 -54.136000  28.067600  30.198900  -7.698630  49.934600  29.497900 -54.699300 -11.852000  -0.001829  -0.000325  -0.925979  -0.002514  -0.000914 -14.141100   4.112500 -15.879900 -12.039200   0.002355  -0.001093  -8.427430  -0.002177  -0.001296 -19.563800   4.992780 -13.760500 -20.166700   0.001710   0.007312 -13.431000  -0.002756   0.002754 -14.737700   3.797660 -14.130100 -15.208700  -0.001563   0.000549 -10.129000  -0.005220   0.002050 -23.647300   2.055990  -4.680260 -35.597500  -0.001289   0.000636 -23.708000  -0.001916   0.002031  12.673400  -2.929230  16.670100  61.721300  15.141100  28.859200 -17.529900  -0.960365  48.557100 -44.342000  36.717800  17.543300 -44.677500  30.084900  66.322800  -0.678509   0.000775   0.000064  -5.339250  -0.000468   0.000809   9.419610   0.331998   2.005120   7.712000  -0.000268   0.000000   5.398400  -0.001680   0.004086   5.340990  -0.531070  -5.641290   5.367360   0.000128  -0.001741   3.574650  -0.000494   0.003312   4.294250  -1.047910 -13.657700   4.419960  -0.001830  -0.000932   2.943680  -0.006846   0.000147  13.334700  -4.674860 -18.956400  21.172900  -0.002551   0.002298  14.101200  -0.001193   0.001786   3.636980  16.656700   1.778960   0.632746   3.442640  11.424600  -6.694550  -5.160660   3.069690  -0.000000   0.000000   0.000000   3.906790  15.662600 -12.087400  -0.723696   3.567120  -7.989500  -9.956060   0.442496   0.208715  -0.000000   0.000000   0.000000
 -1.731780  90.073800  -0.840178  -2.930840 -16.116800  -1.378730   0.944893  10.836800  -1.329260   2.212010  21.646300  -2.924900   3.221550   1.296840  -0.073050   5.300270   2.604690  11.903500  -8.376900  -7.121500   5.181250 -64.046000  22.973400 -28.441100  17.319000   2.284660 -54.945000  27.937200  30.372000  -7.742350  50.347600  29.946000 -54.885700 -11.741400  -0.001722  -0.000312  -0.870691  -0.002519  -0.000832 -14.179200   4.055850 -15.523000 -12.041600   0.002260  -0.000979  -8.429080  -0.002257  -0.001236 -19.340900   4.960140 -13.836200 -19.943100   0.001734   0.007275 -13.282100  -0.002762   0.002766 -14.825500   3.844800 -14.179700 -15.305900  -0.001690   0.000611 -10.193700  -0.005397   0.002011 -23.737000   2.047700  -4.644220 -35.730200  -0.001191   0.000503 -23.796400  -0.002333   0.001883  12.599100  -2.838700  16.601400  61.791300  14.916600  28.345500 -17.694500  -1.139660  49.568700 -43.277100  37.249600  16.754800 -45.092500  30.610200  66.808900  -0.601614   0.000369   0.000026  -5.300800  -0.000449   0.001031   9.457080   0.372734   2.199690   7.742680  -0.000262   0.000000   5.419890  -0.001678   0.004146   5.422520  -0.489002  -5.245630   5.444240   0.000130  -0.001767   3.625850  -0.000472   0.003131   4.470200  -1.055660 -13.007600   4.593790  -0.001809  -0.000908   3.059450  -0.006839   0.000072  13.268900  -4.461660 -18.374800  21.027700  -0.002533   0.002297  14.004500  -0.001205   0.001847   3.633070  16.591100   1.788090   0.637120   3.397080  11.401800  -6.696280  -5.136970   3.069620   0.000000   0.000000   0.000000   3.891570  15.595000 -12.081300  -0.712754   3.544460  -7.975240  -9.949000   0.457389   0.179471   0.000000   0.000000   0.000000
 -1.721250  90.058200  -0.840463  -2.922040 -16.021200  -1.356180   0.932729  10.801700  -1.340040   2.187800  21.576300  -2.943390   3.251660   1.250990  -0.071072   5.349330   2.512190  12.107500  -8.311540  -7.057330   5.197580 -63.843100  22.763100 -28.134000  17.724500   2.149350 -55.872500  27.949700  30.393100  -7.810080  50.650200  30.396600 -55.188000 -11.725600  -0.001621  -0.000307  -0.862793  -0.002524  -0.000748 -14.185100   3.964140 -15.295400 -12.041900   0.002160  -0.000857  -8.429320  -0.002325  -0.001163 -19.260900   4.948450 -13.863400 -19.862900   0.001758   0.007239 -13.228700  -0.002771   0.002777 -14.970800   3.879710 -14.192800 -15.454200  -0.001805   0.000674 -10.292500  -0.005565   0.001966 -23.826700   2.039420  -4.608180 -35.862900  -0.001094   0.000397 -23.884700  -0.002737   0.001758  12.529800  -2.768670  16.528600  61.860600  14.684400  27.810700 -17.891600  -1.336960  50.649800 -42.795200  37.678100  16.397900 -45.349500  31.046400  67.330100  -0.400668   0.000064  -0.000000  -5.200320  -0.000426   0.001854   9.489790   0.413906   2.468420   7.771750  -0.000256   0.000000   5.440240  -0.001676   0.004194   5.549200  -0.469963  -4.849980   5.569400   0.000135  -0.001805   3.709210  -0.000448   0.002951   4.935440  -1.092100 -12.546400   5.057400  -0.001747  -0.000883   3.368230  -0.006830   0.000000  13.314400  -4.368280 -17.880500  21.007000  -0.002478   0.002294  13.990700  -0.001213   0.001881   3.626460  16.519300   1.793310   0.640768   3.351600  11.386600  -6.697700  -5.114310   3.069830  -0.000000   0.000000   0.000000   3.875180  15.524400 -12.073300  -0.701184   3.516850  -7.968050  -9.941220   0.472366   0.155227   0.000000   0.000000  -0.000000
